<?xml version='1.0' encoding='ascii'?>
<svg xmlns="http://www.w3.org/2000/svg" xmlns:inkscape="http://www.inkscape.org/namespaces/inkscape" height="270" version="1.1" width="480">
    <g id="RenderLayer_LineSet" inkscape:groupmode="lineset" inkscape:label="RenderLayer_LineSet">
        <g id="strokes" inkscape:groupmode="layer" inkscape:label="strokes">
            <path d=" M 250.484, 97.629 243.034, 104.300 235.584, 110.971 232.812, 113.453 225.362, 120.123 217.912, 126.794 215.140, 129.276 207.690, 135.946 200.240, 142.617 197.468, 145.099 " fill="none" stroke="rgb(2, 2, 2)" stroke-dasharray="8,8,4,4" stroke-linecap="butt" stroke-linejoin="mitter" stroke-opacity="1.0" stroke-width="2.0" />
            <path d=" M 267.299, 66.096 257.521, 64.001 253.117, 63.058 250.059, 62.403 246.381, 65.696 238.930, 72.367 232.387, 78.226 242.165, 80.320 249.627, 81.919 250.296, 82.062 260.075, 84.157 267.536, 85.755 " fill="none" stroke="rgb(2, 2, 2)" stroke-dasharray="8,8,4,4" stroke-linecap="butt" stroke-linejoin="mitter" stroke-opacity="1.0" stroke-width="2.0" />
            <path d=" M 232.387, 78.226 232.266, 68.227 232.145, 58.227 232.024, 48.228 231.961, 42.999 " fill="none" stroke="rgb(2, 2, 2)" stroke-dasharray="8,8,4,4" stroke-linecap="butt" stroke-linejoin="mitter" stroke-opacity="1.0" stroke-width="2.0" />
            <path d=" M 285.634, 105.158 275.856, 103.064 266.078, 100.969 256.299, 98.875 250.484, 97.629 250.364, 87.630 250.296, 82.062 250.176, 72.063 250.059, 62.403 " fill="none" stroke="rgb(2, 2, 2)" stroke-dasharray="8,8,4,4" stroke-linecap="butt" stroke-linejoin="mitter" stroke-opacity="1.0" stroke-width="2.0" />
        </g>
    </g>
    <g id="RenderLayer_LineSet 2" inkscape:groupmode="lineset" inkscape:label="RenderLayer_LineSet 2">
        <g id="fills" inkscape:groupmode="layer" inkscape:label="fills" xmlns:inkscape="http://www.inkscape.org/namespaces/inkscape">
            <path d=" M 267.111, 50.528 231.961, 42.999 214.289, 58.822 214.715, 94.049 197.042, 109.872 197.468, 145.099 232.618, 152.628 250.290, 136.805 267.962, 120.981 285.634, 105.158 285.208, 69.932 267.299, 66.096 267.111, 50.528  z" fill="rgb(210, 255, 255)" fill-opacity="0.30000001192092896" fill_rule="evenodd" stroke="none" />
        </g>
        <g id="strokes" inkscape:groupmode="layer" inkscape:label="strokes">
            <path d=" M 267.536, 85.755 267.415, 75.756 267.299, 66.096 267.178, 56.096 267.111, 50.528 257.332, 48.434 247.554, 46.339 237.776, 44.245 231.961, 42.999 224.511, 49.670 217.061, 56.340 214.289, 58.822 214.410, 68.822 214.531, 78.821 214.651, 88.820 214.715, 94.049 207.265, 100.720 199.814, 107.390 197.042, 109.872 197.163, 119.872 197.284, 129.871 197.405, 139.870 197.468, 145.099 207.246, 147.193 217.024, 149.288 226.803, 151.382 232.618, 152.628 240.068, 145.957 247.518, 139.287 250.290, 136.805 257.740, 130.134 265.190, 123.463 267.962, 120.981 275.412, 114.311 282.862, 107.640 285.634, 105.158 285.513, 95.159 285.392, 85.160 285.272, 75.161 285.208, 69.932 275.430, 67.837 267.299, 66.096 " fill="none" stroke="rgb(0, 0, 0)" stroke-linecap="butt" stroke-linejoin="mitter" stroke-opacity="1.0" stroke-width="3.0" />
            <path d=" M 214.289, 58.822 224.067, 60.917 233.845, 63.011 243.624, 65.106 246.381, 65.696 249.439, 66.351 " fill="none" stroke="rgb(0, 0, 0)" stroke-linecap="butt" stroke-linejoin="mitter" stroke-opacity="1.0" stroke-width="3.0" />
            <path d=" M 249.864, 101.578 249.743, 91.579 249.627, 81.919 249.506, 71.919 249.439, 66.351 253.117, 63.058 260.567, 56.387 267.111, 50.528 " fill="none" stroke="rgb(0, 0, 0)" stroke-linecap="butt" stroke-linejoin="mitter" stroke-opacity="1.0" stroke-width="3.0" />
            <path d=" M 214.715, 94.049 224.493, 96.144 234.271, 98.238 244.049, 100.332 249.864, 101.578 242.414, 108.249 234.964, 114.919 232.192, 117.401 " fill="none" stroke="rgb(0, 0, 0)" stroke-linecap="butt" stroke-linejoin="mitter" stroke-opacity="1.0" stroke-width="3.0" />
            <path d=" M 267.536, 85.755 274.986, 79.084 282.436, 72.414 285.208, 69.932 " fill="none" stroke="rgb(0, 0, 0)" stroke-linecap="butt" stroke-linejoin="mitter" stroke-opacity="1.0" stroke-width="3.0" />
            <path d=" M 197.042, 109.872 206.821, 111.967 216.599, 114.061 226.377, 116.156 232.192, 117.401 232.313, 127.400 232.434, 137.400 232.554, 147.399 232.618, 152.628 " fill="none" stroke="rgb(0, 0, 0)" stroke-linecap="butt" stroke-linejoin="mitter" stroke-opacity="1.0" stroke-width="3.0" />
        </g>
    </g>
</svg>
