<?xml version='1.0' encoding='ascii'?>
<svg xmlns="http://www.w3.org/2000/svg" xmlns:inkscape="http://www.inkscape.org/namespaces/inkscape" height="270" version="1.1" width="480">
    <g id="RenderLayer_LineSet" inkscape:groupmode="lineset" inkscape:label="RenderLayer_LineSet">
        <g id="strokes" inkscape:groupmode="layer" inkscape:label="strokes">
            <path d=" M 197.237, 70.697 197.358, 80.696 197.479, 90.696 197.600, 100.695 197.663, 105.924 " fill="none" stroke="rgb(2, 2, 2)" stroke-dasharray="8,8,4,4" stroke-linecap="butt" stroke-linejoin="mitter" stroke-opacity="1.0" stroke-width="2.0" />
            <path d=" M 232.812, 113.453 223.034, 111.358 214.903, 109.616 205.125, 107.522 200.721, 106.579 197.663, 105.924 190.213, 112.594 182.763, 119.265 179.991, 121.747 " fill="none" stroke="rgb(2, 2, 2)" stroke-dasharray="8,8,4,4" stroke-linecap="butt" stroke-linejoin="mitter" stroke-opacity="1.0" stroke-width="2.0" />
            <path d=" M 232.387, 78.226 232.508, 88.225 232.628, 98.225 232.749, 108.224 232.812, 113.453 240.262, 106.782 247.712, 100.111 250.485, 97.629 " fill="none" stroke="rgb(2, 2, 2)" stroke-dasharray="8,8,4,4" stroke-linecap="butt" stroke-linejoin="mitter" stroke-opacity="1.0" stroke-width="2.0" />
            <path d=" M 197.231, 125.440 207.009, 127.534 215.140, 129.276 215.019, 119.276 214.952, 113.708 214.903, 109.616 214.782, 99.617 214.715, 94.049 " fill="none" stroke="rgb(2, 2, 2)" stroke-dasharray="8,8,4,4" stroke-linecap="butt" stroke-linejoin="mitter" stroke-opacity="1.0" stroke-width="2.0" />
            <path d=" M 250.059, 62.403 250.180, 72.402 250.301, 82.401 250.421, 92.401 250.485, 97.629 260.263, 99.724 270.041, 101.818 279.819, 103.913 285.634, 105.158 " fill="none" stroke="rgb(2, 2, 2)" stroke-dasharray="8,8,4,4" stroke-linecap="butt" stroke-linejoin="mitter" stroke-opacity="1.0" stroke-width="2.0" />
            <path d=" M 197.468, 145.099 204.918, 138.428 212.368, 131.758 215.140, 129.276 " fill="none" stroke="rgb(2, 2, 2)" stroke-dasharray="8,8,4,4" stroke-linecap="butt" stroke-linejoin="mitter" stroke-opacity="1.0" stroke-width="2.0" />
        </g>
    </g>
    <g id="RenderLayer_LineSet 2" inkscape:groupmode="lineset" inkscape:label="RenderLayer_LineSet 2">
        <g id="fills" inkscape:groupmode="layer" inkscape:label="fills" xmlns:inkscape="http://www.inkscape.org/namespaces/inkscape">
            <path d=" M 179.565, 86.520 179.991, 121.747 197.231, 125.440 197.468, 145.099 232.618, 152.628 250.290, 136.805 267.962, 120.982 285.634, 105.158 285.208, 69.932 250.059, 62.403 232.387, 78.226 197.237, 70.697 179.565, 86.520  z" fill="rgb(10, 56, 255)" fill-opacity="0.30000001192092896" fill_rule="evenodd" stroke="none" />
        </g>
        <g id="strokes" inkscape:groupmode="layer" inkscape:label="strokes">
            <path d=" M 214.715, 94.049 207.265, 100.720 200.721, 106.579 197.042, 109.872 197.163, 119.872 197.231, 125.440 197.351, 135.439 197.468, 145.099 207.246, 147.193 217.024, 149.288 226.803, 151.382 232.618, 152.628 240.068, 145.957 247.518, 139.287 250.290, 136.805 257.740, 130.134 265.190, 123.463 267.962, 120.982 275.412, 114.311 282.862, 107.640 285.634, 105.158 285.513, 95.159 285.392, 85.160 285.272, 75.161 285.208, 69.932 275.430, 67.837 265.652, 65.743 255.874, 63.648 250.059, 62.403 242.609, 69.073 235.159, 75.744 232.387, 78.226 222.609, 76.132 212.830, 74.037 203.052, 71.943 197.237, 70.697 189.787, 77.368 182.337, 84.038 179.565, 86.520 179.686, 96.519 179.807, 106.519 179.928, 116.518 179.991, 121.747 189.769, 123.841 197.231, 125.440 " fill="none" stroke="rgb(0, 0, 0)" stroke-linecap="butt" stroke-linejoin="mitter" stroke-opacity="1.0" stroke-width="3.0" />
            <path d=" M 214.715, 94.049 204.936, 91.955 195.158, 89.860 185.380, 87.766 179.565, 86.520 " fill="none" stroke="rgb(0, 0, 0)" stroke-linecap="butt" stroke-linejoin="mitter" stroke-opacity="1.0" stroke-width="3.0" />
            <path d=" M 285.208, 69.932 277.758, 76.602 270.308, 83.273 267.536, 85.755 260.086, 92.425 252.636, 99.096 249.864, 101.578 242.414, 108.249 234.964, 114.919 232.192, 117.401 " fill="none" stroke="rgb(0, 0, 0)" stroke-linecap="butt" stroke-linejoin="mitter" stroke-opacity="1.0" stroke-width="3.0" />
            <path d=" M 197.042, 109.872 206.821, 111.967 214.952, 113.708 224.730, 115.803 232.192, 117.401 232.313, 127.400 232.434, 137.400 232.554, 147.399 232.618, 152.628 " fill="none" stroke="rgb(0, 0, 0)" stroke-linecap="butt" stroke-linejoin="mitter" stroke-opacity="1.0" stroke-width="3.0" />
        </g>
    </g>
</svg>
